<?xml version="1.0" standalone="no"?>
<!DOCTYPE svg PUBLIC "-//W3C//DTD SVG 20010904//EN"
 "http://www.w3.org/TR/2001/REC-SVG-20010904/DTD/svg10.dtd">
<svg version="1.0" xmlns="http://www.w3.org/2000/svg"
 width="512.000000pt" height="512.000000pt" viewBox="0 0 512.000000 512.000000"
 preserveAspectRatio="xMidYMid meet">
<metadata>
Created by potrace 1.14, written by Peter Selinger 2001-2017
</metadata>
<g transform="translate(0.000000,512.000000) scale(0.100000,-0.100000)"
fill="#000000" stroke="none">
<path d="M2600 4825 c0 -6 -52 -11 -133 -11 -113 -2 -322 -11 -322 -14 0 -2
-38 -9 -85 -15 -25 -3 -56 -7 -70 -10 -25 -5 -53 -9 -124 -21 -30 -4 -262 -60
-331 -78 -5 -2 -29 -7 -52 -11 -24 -4 -43 -10 -43 -14 0 -3 -11 -7 -24 -7 -46
-3 -272 -96 -288 -119 -5 -7 -8 -7 -8 0 0 6 -7 2 -14 -8 -8 -10 -18 -19 -23
-19 -17 -1 -53 -22 -53 -30 0 -5 -5 -6 -10 -3 -6 3 -10 2 -10 -2 0 -5 -15 -17
-32 -28 -18 -10 -40 -27 -49 -37 -9 -10 -19 -18 -23 -18 -7 0 -61 -48 -130
-116 -189 -187 -366 -486 -451 -764 -9 -30 -19 -62 -22 -70 -4 -8 -5 -19 -4
-24 1 -4 -3 -14 -9 -20 -5 -7 -7 -16 -4 -19 3 -3 2 -12 -2 -19 -5 -7 -9 -21
-10 -30 -1 -10 -2 -19 -4 -20 -2 -4 -6 -21 -15 -73 -8 -45 -13 -70 -15 -70 -1
0 -4 -27 -7 -60 -2 -33 -6 -69 -7 -80 -1 -11 -5 -25 -9 -32 -4 -6 -2 -13 5
-15 7 -3 8 -9 2 -19 -11 -17 -13 -339 -2 -339 4 0 3 -11 -2 -24 -5 -13 -6 -26
-3 -29 2 -3 7 -25 9 -49 3 -24 6 -61 8 -83 3 -22 5 -40 6 -40 2 0 4 -13 5 -30
2 -16 4 -30 5 -30 1 0 3 -13 5 -30 1 -16 3 -30 4 -30 2 0 4 -9 6 -20 2 -11 7
-36 11 -55 4 -19 8 -37 8 -40 4 -26 108 -355 115 -365 4 -5 16 -32 26 -60 24
-66 134 -288 147 -296 5 -3 9 -10 9 -15 -1 -5 7 -18 16 -29 9 -11 15 -20 13
-20 -6 0 52 -90 64 -97 6 -5 7 -8 1 -8 -6 0 -6 -3 0 -8 6 -4 22 -23 35 -42 13
-19 29 -40 35 -47 5 -7 15 -18 20 -25 72 -91 103 -126 180 -203 108 -108 163
-157 209 -188 19 -13 53 -38 75 -56 23 -18 41 -30 41 -26 0 3 10 -3 22 -15 12
-11 28 -20 35 -20 7 0 13 -4 13 -10 0 -5 6 -10 14 -10 8 0 16 -3 18 -8 4 -10
140 -78 150 -75 4 2 8 -1 8 -6 0 -5 8 -11 18 -14 9 -3 49 -17 87 -32 39 -14
77 -28 85 -30 8 -1 40 -10 70 -19 109 -31 288 -53 400 -49 158 5 223 15 385
55 66 16 133 32 148 35 16 2 46 11 68 18 21 8 39 12 39 9 0 -2 9 0 21 6 11 7
31 14 45 16 13 2 36 9 51 16 16 6 30 12 33 13 34 8 148 50 158 58 6 5 12 7 12
3 0 -3 16 3 37 14 20 10 39 17 43 15 4 -3 13 2 20 10 7 8 16 12 21 9 5 -3 9 0
9 5 0 6 3 10 8 9 33 -9 565 297 580 334 2 4 8 8 14 8 5 0 15 6 22 12 8 7 24
20 36 28 24 16 81 64 112 93 10 9 18 15 18 12 0 -5 81 69 182 166 43 41 78 81
78 87 0 7 6 12 13 12 6 0 23 16 36 35 13 19 27 35 32 35 5 0 9 6 9 13 0 7 9
19 20 27 11 8 20 18 20 22 0 8 21 36 48 64 7 8 10 14 5 14 -4 0 -3 4 3 8 10 7
87 116 112 161 43 75 58 101 82 151 28 55 61 128 65 143 2 4 4 9 5 12 1 3 3 8
5 13 1 4 5 14 8 22 11 27 48 137 52 159 3 11 7 29 10 39 17 65 25 105 20 110
-2 3 -1 10 4 16 20 24 48 391 31 401 -3 2 -5 31 -4 64 0 34 -2 61 -5 61 -3 0
-7 17 -7 38 -2 63 -9 112 -15 112 -3 0 -6 6 -6 13 0 18 -12 81 -18 100 -3 10
-8 25 -11 35 -4 9 -8 24 -9 32 -6 30 -64 198 -90 255 -57 129 -146 290 -184
334 -12 13 -21 27 -21 31 0 4 -8 16 -17 27 -10 11 -29 35 -43 53 -14 19 -40
49 -58 67 -18 18 -30 33 -28 33 6 0 -113 114 -164 157 -95 81 -320 232 -320
215 0 -4 -4 -2 -8 4 -10 16 -148 84 -156 77 -3 -4 -6 -1 -6 5 0 7 -9 12 -20
12 -11 0 -20 4 -20 10 0 5 -3 9 -7 8 -5 -1 -18 3 -30 10 -13 7 -23 10 -23 6 0
-3 -7 -1 -15 6 -8 7 -15 9 -15 5 0 -4 -6 -3 -12 3 -48 37 -458 139 -638 158
-94 10 -193 16 -265 18 -44 0 -83 6 -87 11 -5 7 -8 7 -8 0z"/>
</g>
</svg>
